<svg xmlns="http://www.w3.org/2000/svg" data-name="Layer 1" viewBox="0 0 796.1 224.8"><defs><clipPath id="a" transform="translate(101.12 -308.89)"><path fill="none" d="M-101 308.89h796.8v225H-101z"/></clipPath></defs><path fill="#fefefe" d="M311 135.22v20.28c0 6.76-1.69 11.83-3.38 16.9-1.69 3.38-5.07 8.45-8.45 10.14-3.38 3.38-10.14 5.07-16.9 5.07s-13.52-1.69-16.9-5.07-6.76-6.76-8.45-10.14c-1.69-5.07-3.38-10.14-3.38-16.9V67.61a40.34 40.34 0 0 1 3.38-15.21 51.26 51.26 0 0 1 8.45-11.83c3.38-3.38 10.14-5.07 16.9-5.07s13.52 1.69 16.9 5.07 6.76 6.76 8.45 11.83S311 62.54 311 67.61v20.28h-20.28V67.61a12.94 12.94 0 0 0-3.38-8.45c-1.69-1.69-3.38-1.69-5.07-1.69-3.38 0-5.07 3.38-6.76 5.07 0 1.69 0 3.38-1.69 5.07v87.89a12.93 12.93 0 0 0 3.38 8.45c1.69 1.69 1.69 1.69 3.38 1.69 5.07 0 6.76-1.69 6.76-5.07v-25.35H311zm62.54 23.66c0 10.14-3.38 18.59-10.14 23.66q-5.07 5.07-15.21 5.07c-13.52 0-20.29-6.76-22-15.21a33.71 33.71 0 0 1-3.38-15.21v-55.78q0-15.21 10.14-25.35 5.07-5.07 15.21-5.07c13.52 0 20.28 6.76 23.66 13.52 1.69 5.07 3.38 8.45 3.38 13.52v55.78zm-18.59-55.77c0-3.38 0-6.76-3.38-10.14-1.69-1.69-3.38-1.69-5.07-1.69-3.38 0-5.07 3.38-6.76 5.07v60.85c0 3.38 0 6.76 3.38 10.14 1.69 1.69 1.69 1.69 5.07 1.69s5.07-1.69 6.76-5.07v-60.85zm84.51 82.82h-20.28v-6.76c-3.38 3.38-6.76 5.07-10.14 6.76-1.69 1.69-3.38 1.69-5.07 1.69-5.07 0-10.14-3.38-11.83-6.76-3.38-3.38-3.38-10.14-3.38-13.52v-71a31.84 31.84 0 0 1 3.36-13.52c1.69-3.38 6.76-6.76 11.83-6.76 3.38 0 8.45 1.69 10.14 5.07l5.07 5.07V40.57h20.28v145.36zm-20.28-86.2a7.27 7.27 0 0 0-6.76-6.76c-3.38 0-5.07 3.38-5.07 6.76v62.54c0 3.38 1.69 6.76 5.07 6.76a7.27 7.27 0 0 0 6.76-6.76V99.72zm87.89 47.33v13.52c0 10.14-3.38 18.59-11.83 23.66q-5.07 5.07-15.21 5.07c-13.52 0-20.28-6.76-23.66-15.21a33.81 33.81 0 0 1-3.38-15.21v-55.78c0-10.14 3.38-18.59 11.83-25.35q5.07-5.07 15.21-5.07c13.52 0 20.29 6.76 23.67 13.52 1.69 5.07 3.38 8.45 3.38 13.52v32.11h-33.8v23.66c0 3.38 1.69 6.76 3.38 10.14 1.69 1.69 1.69 1.69 5.07 1.69s5.07-1.69 6.76-5.07v-16.9h18.59v1.69zm-33.8-27h15.21v-15.27c0-3.38 0-6.76-3.38-10.14-1.69-1.69-3.38-1.69-5.07-1.69-3.38 0-5.07 3.38-6.76 5.07 0 1.69 0 3.38-1.69 5.07v15.21zm87.89-22h-5.04c-3.38 0-6.76 0-10.15 3.38s-5.07 6.76-5.07 10.14v76.03h-20.31V77.75h20.28v11.83c0-1.69 1.69-5.07 5.07-8.45s8.45-5.07 15.22-5.07v22zm8.45 89.58V38.88h16.9c20.28 0 30.43 3.38 37.18 15.21 5.07 11.83 6.76 30.43 6.76 59.16s0 47.32-6.76 59.16c-5.07 11.83-16.9 15.21-37.18 15.21h-16.9zm22-22c6.76 0 11.83 0 13.52-8.45 1.69-3.38 1.69-8.45 1.69-15.21V84.51c0-6.76-1.69-11.83-1.69-15.21-1.69-6.76-6.76-8.45-13.52-8.45v104.79zm103.11-5.07c0 10.14-3.38 18.59-10.14 23.66q-5.07 5.07-15.22 5.07c-13.52 0-20.28-6.76-22-15.21a33.81 33.81 0 0 1-3.38-15.21v-55.77q0-15.22 10.14-25.35 5.07-5.07 15.21-5.07c13.52 0 20.28 6.76 23.66 13.52 1.69 5.07 3.38 8.45 3.38 13.52v55.78zm-18.6-55.78c0-3.38 0-6.76-3.38-10.14-1.69-1.69-3.38-1.69-5.07-1.69-3.38 0-5.07 3.38-6.76 5.07v60.85c0 3.38 0 6.76 3.38 10.14 1.69 1.69 1.69 1.69 5.07 1.69s5.07-1.69 6.76-5.07v-60.85zm32.11-65.92h20.28v20.24H708.2V38.88zm20.28 37.18V189.3c0 5.07 0 15.21-3.38 22s-8.45 13.52-20.28 13.52h-8.45v-18.61h5.07c3.38 0 5.07-3.38 5.07-6.76V76.06h22zm65.92 82.82c0 10.14-3.38 18.59-10.14 23.66q-5.07 5.07-15.21 5.07c-13.52 0-20.28-6.76-22-15.21a33.78 33.78 0 0 1-3.38-15.21v-55.77q0-15.21 10.14-25.35 5.07-5.07 15.21-5.07c13.52 0 20.28 6.76 23.66 13.52 1.69 5.07 3.38 8.45 3.38 13.52v55.78zm-18.62-55.76c0-3.38 0-6.76-3.38-10.14-1.69-1.69-3.38-1.69-5.07-1.69-3.38 0-5.07 3.38-6.76 5.07v60.85c0 3.38 0 6.76 3.38 10.14 1.69 1.69 1.69 1.69 5.07 1.69s5.07-1.69 6.76-5.07v-60.85z"/><g clip-path="url(#a)"><path fill="#fefefe" d="M218.04 111.56A108.17 108.17 0 1 1 109.86 3.38a108.18 108.18 0 0 1 108.18 108.18z"/><path d="M111.56 0a111.555 111.555 0 0 1 0 223.11 111.555 111.555 0 1 1 0-223.11zm-1.7 5.11h-1.68C50.71 5.11 5.12 52.4 5.12 109.86s45.64 104.8 104.79 104.8c-28.79 0-50.79-23.66-50.79-52.4a52.66 52.66 0 0 1 52.4-52.4 52.4 52.4 0 1 0 0-104.79h-1.66z"/></g><path d="M92.96 69.3V30.43c0-1.69 0-3.38 1.69-5.07s3.38-1.69 5.07-1.69h20.29c1.69 0 3.38 0 5.07 1.69s1.69 3.38 1.69 5.07v38.88c0 1.69 0 3.38-1.69 5.07s-3.38 1.69-5.07 1.69H99.72c-1.69 0-3.38 0-5.07-1.69s-1.69-3.38-1.69-5.07zm27 0V30.43H99.72v38.88h20.29z"/><path fill="#fff" d="M101.41 187.61h10.15v-38.87h-10.15c-1.69 0-1.69 0-1.69-1.69l-1.69-1.69c0-1.69 0-1.69 1.69-1.69l1.69-1.69h16.91v45.63h6.8v-13.5c0-1.69 0-1.69 1.69-1.69l1.69-1.69c1.69 0 1.69 0 1.69 1.69l1.65 1.69v16.9c0 1.69 0 1.69-1.69 1.69l-1.69 1.69h-27c-1.69 0-1.69 0-1.69-1.69l-1.69-1.69c0-1.69 0-1.69 1.69-1.69z"/></svg>